<svg width="286" height="28.8" viewBox="0 0 286 28.8" class="css-1j8o68f"><defs id="SvgjsDefs5690"></defs><g id="SvgjsG5691" featurekey="symbolFeature-0" transform="matrix(0.4114285714285714,0,0,-0.4114285714285714,-12.342857142857143,34.97142857142857)" fill="#f80000"><circle xmlns="http://www.w3.org/2000/svg" fill="#f80000" cx="37.5" cy="22.5" r="2.5"></circle><circle xmlns="http://www.w3.org/2000/svg" fill="#f80000" cx="62.5" cy="77.5" r="2.5"></circle><circle xmlns="http://www.w3.org/2000/svg" fill="#f80000" cx="37.5" cy="50" r="7.5"></circle><circle xmlns="http://www.w3.org/2000/svg" fill="#f80000" cx="37.5" cy="77.5" r="7.5"></circle><circle xmlns="http://www.w3.org/2000/svg" fill="#f80000" cx="62.5" cy="22.5" r="7.5"></circle><circle xmlns="http://www.w3.org/2000/svg" fill="#f80000" cx="62.5" cy="50" r="7.5"></circle></g><g id="SvgjsG5692" featurekey="nameFeature-0" transform="matrix(0.6442524689528821,0,0,0.6442524689528821,32.828990006458255,2.1946845674106554)" fill="#f80000"><path d="M23.281 7.5 l11.797 0 l0 -6.0938 l-30.156 0 l0 6.0938 l18.359 0 z M16.719 13.594000000000001 l6.5625 0 l0 25 l-6.5625 0 l0 -25 z M51.0938 1.4059999999999988 l27.813 0 l0 5.9375 l-27.813 0 l0 -5.9375 z M51.0938 32.6562 l27.734 0 l0 5.9375 l-27.734 0 l0 -5.9375 z M51.0938 16.875 l25.078 0 l0 5.8594 l-25.078 0 l0 -5.8594 z M120.703 38.5937 l7.0313 0 l-13.594 -37.266 l-7.1094 0 l7.8906 22.266 z M91.9531 38.5937 l6.875 0 l8.125 -19.844 l-3.3594 -8.9063 z M142.2656 12.5 c0.9375 -2.2916 2.2916 -4.2447 4.0624 -5.8593 c1.6146 -1.6146 3.698 -2.9167 6.2501 -3.9063 s5.2344 -1.4844 8.0469 -1.4844 l8.6719 0 l0 5.9375 l-8.5938 0 c-2.0313 0 -3.8281 0.33852 -5.3906 1.0156 c-1.6666 0.67711 -3.0208 1.5625 -4.0624 2.6563 c-1.0938 1.0416 -1.9791 2.3958 -2.6563 4.0624 c-0.625 1.5104 -0.9375 3.2031 -0.9375 5.0781 s0.3125 3.5677 0.9375 5.0781 c0.625 1.5625 1.5104 2.9166 2.6563 4.0625 c1.0416 1.0416 2.3958 1.901 4.0624 2.5781 c1.6666 0.625 3.4635 0.9375 5.3906 0.9375 l8.5938 0 l0 5.9375 l-8.6719 0 c-2.9166 0 -5.5729 -0.46875 -7.9688 -1.4063 c-2.5 -1.0416 -4.6094 -2.3698 -6.3281 -3.9844 c-1.7709 -1.6666 -3.125 -3.6458 -4.0625 -5.9374 c-0.98961 -2.3959 -1.4844 -4.8438 -1.4844 -7.3438 c0 -2.6563 0.49477 -5.1302 1.4844 -7.4219 z M191.094 16.875 l0 -15.547 l-6.5625 0 l0 37.344 l6.5625 0 l0 -21.797 z M208.984 1.328000000000003 l0 15.547 l-11.406 0 l0 6.0938 l11.406 0 l0 15.703 l6.4844 0 l0 -37.344 l-6.4844 0 z M256.953 38.5937 l6.5625 0 l0 -27.422 l-6.5625 9.6094 l0 17.813 z M263.516 1.4059999999999988 l-7.0313 0 l-11.484 17.813 l-11.406 -17.813 l-7.0313 0 l0 37.188 l6.5625 0 l0 -26.406 l11.719 17.578 l0.23438 0 l10.234 -15.156 c0.052109 -0.20836 2.7865 -4.6094 8.2031 -13.203 z M300.703 38.5937 l7.0313 0 l-13.594 -37.266 l-7.1094 0 l7.8906 22.266 z M271.9531 38.5937 l6.875 0 l8.125 -19.844 l-3.3594 -8.9063 z M322.0313 1.4059999999999988 l6.4063 0 l0 31.25 l19.531 0 l0 5.9375 l-25.938 0 l0 -37.188 z M367.0313 1.4059999999999988 l6.4063 0 l0 31.25 l19.531 0 l0 5.9375 l-25.938 0 l0 -37.188 z"></path></g></svg>