<svg width="286" height="29" viewBox="0 0 286 29" fill="none" xmlns="http://www.w3.org/2000/svg">
<g clip-path="url(#clip0_7_13)">
<path d="M3.08572 24.6857C3.65378 24.6857 4.11429 25.1462 4.11429 25.7143C4.11429 26.2824 3.65378 26.7429 3.08572 26.7429C2.51765 26.7429 2.05714 26.2824 2.05714 25.7143C2.05714 25.1462 2.51765 24.6857 3.08572 24.6857Z" fill="#F80000"/>
<path d="M13.3714 2.05715C13.9395 2.05715 14.4 2.51765 14.4 3.08572C14.4 3.65378 13.9395 4.11429 13.3714 4.11429C12.8034 4.11429 12.3429 3.65378 12.3429 3.08572C12.3429 2.51765 12.8034 2.05715 13.3714 2.05715Z" fill="#F80000"/>
<path d="M3.08571 11.3143C4.78991 11.3143 6.17143 12.6958 6.17143 14.4C6.17143 16.1042 4.78991 17.4857 3.08571 17.4857C1.38152 17.4857 0 16.1042 0 14.4C0 12.6958 1.38152 11.3143 3.08571 11.3143Z" fill="#F80000"/>
<path d="M3.08571 3.8147e-06C4.78991 3.8147e-06 6.17143 1.38153 6.17143 3.08572C6.17143 4.78991 4.78991 6.17143 3.08571 6.17143C1.38152 6.17143 0 4.78991 0 3.08572C0 1.38153 1.38152 3.8147e-06 3.08571 3.8147e-06Z" fill="#F80000"/>
<path d="M13.3714 22.6286C15.0756 22.6286 16.4571 24.0101 16.4571 25.7143C16.4571 27.4185 15.0756 28.8 13.3714 28.8C11.6672 28.8 10.2857 27.4185 10.2857 25.7143C10.2857 24.0101 11.6672 22.6286 13.3714 22.6286Z" fill="#F80000"/>
<path d="M13.3714 11.3143C15.0756 11.3143 16.4571 12.6958 16.4571 14.4C16.4571 16.1042 15.0756 17.4857 13.3714 17.4857C11.6672 17.4857 10.2857 16.1042 10.2857 14.4C10.2857 12.6958 11.6672 11.3143 13.3714 11.3143Z" fill="#F80000"/>
<path d="M47.8278 7.02658H55.4281V3.10063H36V7.02658H47.8278V7.02658ZM43.6002 10.9527H47.8282V27.059H43.6002V10.9527ZM65.7463 3.1005H83.6649V6.92575H65.7463V3.1005ZM65.7463 23.2335H83.614V27.0588H65.7463V23.2335V23.2335ZM65.7463 13.0664H81.9029V16.8414H65.7463V13.0664ZM110.592 27.0588H115.122L106.364 3.05006H101.784L106.867 17.395L110.592 27.0588ZM92.07 27.0588H96.4992L101.734 14.2742L99.5695 8.53632L92.07 27.0588ZM124.484 10.2478C125.088 8.77147 125.96 7.51318 127.101 6.47297C128.141 5.43276 129.484 4.59388 131.128 3.95633C132.772 3.31878 134.5 3 136.312 3H141.899V6.82525H136.362C135.054 6.82525 133.896 7.04334 132.889 7.47955C131.816 7.91578 130.943 8.4862 130.272 9.19088C129.568 9.86193 128.997 10.7344 128.561 11.8081C128.158 12.7812 127.957 13.8717 127.957 15.0797C127.957 16.2876 128.158 17.3782 128.561 18.3512C128.964 19.3579 129.534 20.2303 130.272 20.9685C130.943 21.6396 131.816 22.1932 132.889 22.6295C133.963 23.0321 135.121 23.2335 136.362 23.2335H141.899V27.0587H136.312C134.433 27.0587 132.722 26.7567 131.178 26.1527C129.567 25.4816 128.209 24.6259 127.101 23.5857C125.96 22.512 125.088 21.2369 124.484 19.7605C123.846 18.217 123.528 16.6399 123.528 15.0293C123.528 13.318 123.846 11.7241 124.484 10.2477V10.2478ZM155.942 13.0664V3.05025H151.714V27.1092H155.942V13.0664V13.0664ZM167.467 3.05025V13.0664H160.119V16.9924H167.467V27.1091H171.645V3.05012H167.467V3.05025ZM198.372 27.0588H202.6V9.39208L198.372 15.583V27.059V27.0588ZM202.6 3.1005H198.07L190.671 14.5766L183.323 3.1005H178.793V27.059H183.021V10.0468L190.571 21.3715H190.722L197.315 11.6072C197.349 11.473 199.11 8.6376 202.6 3.10115L202.6 3.1005ZM226.558 27.0588H231.088L222.33 3.05006H217.749L222.833 17.395L226.558 27.0588ZM208.035 27.0588H212.465L217.699 14.2742L215.535 8.53632L208.035 27.0588ZM240.298 3.1005H244.426V23.2334H257.009V27.0586H240.298V3.10018L240.298 3.1005ZM269.29 3.1005H273.417V23.2334H286V27.0586H269.289V3.10018L269.29 3.1005Z" fill="#F80000"/>
</g>
<defs>
<clipPath id="clip0_7_13">
<rect width="286" height="28.8" fill="white"/>
</clipPath>
</defs>
</svg>
