<svg width="69" height="89" viewBox="0 0 69 89" fill="none" xmlns="http://www.w3.org/2000/svg">
<path d="M0.515137 70.4012V88.9663H68.1827V70.4012C68.1801 68.3314 67.3567 66.3472 65.8931 64.8836C64.4296 63.42 62.4453 62.5967 60.3755 62.594H8.32236C6.25257 62.5967 4.26832 63.42 2.80476 64.8836C1.3412 66.3472 0.517798 68.3314 0.515137 70.4012H0.515137ZM5.71995 70.4012C5.72095 69.7113 5.99545 69.05 6.48328 68.5621C6.97111 68.0743 7.63246 67.7998 8.32236 67.7988H10.9248V83.7653H5.71995V70.4012ZM16.1308 67.7988H22.8606L34.3489 79.2871L45.8372 67.7988H52.5633V83.7653H16.1308V67.7988ZM62.9779 70.4012V83.7615H57.7731V67.795H60.3755C61.0661 67.796 61.728 68.0711 62.2159 68.5597C62.7039 69.0484 62.9779 69.7107 62.9779 70.4012ZM38.4763 67.7988L34.3489 71.9262L30.2215 67.7988H38.4763Z" fill="#FF6875"/>
<path d="M53.8205 52.1792H57.7769V46.9744H60.3793C62.4491 46.9717 64.4333 46.1483 65.8969 44.6848C67.3605 43.2212 68.1839 41.237 68.1865 39.1672V33.9624C68.1862 24.9886 64.621 16.3825 58.2754 10.0373C51.9297 3.6921 43.3234 0.127596 34.3496 0.12793C25.3758 0.128263 16.7697 3.6934 10.4245 10.0391C4.0793 16.3847 0.514803 24.9911 0.515137 33.9649L0.515137 39.1697C0.517798 41.2395 1.3412 43.2237 2.80476 44.6873C4.26832 46.1508 6.25257 46.9742 8.32236 46.9769H12.2649C13.7124 51.0761 16.2723 54.6914 19.6582 57.418C23.0441 60.1446 27.1221 61.8748 31.4357 62.4148C35.7492 62.9548 40.128 62.2833 44.0815 60.4755C48.035 58.6678 51.4072 55.7951 53.8205 52.1792ZM60.3793 41.7683H57.626C57.7229 40.9042 57.7716 40.0354 57.7719 39.1659V33.9611C57.7716 33.0916 57.7229 32.2228 57.626 31.3587H60.3743C61.0642 31.3597 61.7255 31.6342 62.2133 32.122C62.7012 32.6099 62.9757 33.2712 62.9767 33.9611V39.1659C62.977 39.8567 62.7031 40.5193 62.2151 41.0082C61.7271 41.4972 61.065 41.7724 60.3743 41.7733L60.3793 41.7683ZM34.3489 5.33589C40.6067 5.34394 46.69 7.39849 51.6712 11.1862C56.6524 14.9739 60.258 20.2869 61.9382 26.3148C61.4239 26.2101 60.9004 26.1574 60.3755 26.1577H56.4317C54.8171 21.5909 51.8265 17.637 47.8716 14.8405C43.9167 12.044 39.1921 10.5423 34.3483 10.5423C29.5046 10.5423 24.7799 12.044 20.825 14.8405C16.8701 17.637 13.8795 21.5909 12.2649 26.1577H8.32236C7.7975 26.1574 7.27395 26.2101 6.75966 26.3148C8.43984 20.2869 12.0455 14.9739 17.0267 11.1862C22.0079 7.39849 28.0912 5.34394 34.3489 5.33589ZM49.2946 23.5603C47.6118 25.9642 45.3754 27.928 42.7742 29.2859C40.173 30.6438 37.2833 31.3561 34.3489 31.3625H16.3169C16.838 27.7439 18.436 24.366 20.9031 21.6681C23.3702 18.9702 26.5922 17.0773 30.1498 16.2356C33.7074 15.3939 37.4361 15.6424 40.8505 16.9487C44.265 18.2551 47.2073 20.5589 49.2946 23.5603ZM8.32236 41.7733C7.63246 41.7724 6.97111 41.4979 6.48328 41.01C5.99545 40.5222 5.72095 39.8608 5.71995 39.1709V33.9661C5.72095 33.2762 5.99545 32.6149 6.48328 32.1271C6.97111 31.6392 7.63246 31.3647 8.32236 31.3637H11.0756C10.9787 32.2278 10.93 33.0966 10.9298 33.9661V39.1709C10.93 40.0404 10.9787 40.9093 11.0756 41.7733H8.32236ZM16.1296 39.1709V36.5685H34.3489C37.6444 36.5624 40.9018 35.8636 43.9097 34.5173C46.9176 33.171 49.6089 31.2073 51.809 28.7538C52.3147 30.4445 52.5709 32.2001 52.5696 33.9649V39.1697C52.5724 41.8708 51.971 44.5383 50.8095 46.9769H42.1562L39.8655 44.6913C38.4012 46.1554 36.4153 46.9779 34.3445 46.9779C32.2738 46.9779 30.2879 46.1554 28.8235 44.6913L25.1437 48.3711C27.3586 50.5859 30.298 51.9276 33.4224 52.1497C36.5467 52.3719 39.6464 51.4597 42.1524 49.5806V52.1792H47.0806C44.5193 54.6883 41.2743 56.3853 37.7524 57.0575C34.2305 57.7296 30.5886 57.347 27.2832 55.9577C23.9779 54.5683 21.1564 52.234 19.1724 49.2475C17.1884 46.2609 16.1303 42.7551 16.1308 39.1697L16.1296 39.1709Z" fill="#FF6875"/>
</svg>
