<svg width="17" height="29" viewBox="0 0 17 29" fill="none" xmlns="http://www.w3.org/2000/svg">
<path d="M3.08572 24.6857C3.65378 24.6857 4.11429 25.1462 4.11429 25.7143C4.11429 26.2824 3.65378 26.7429 3.08572 26.7429C2.51765 26.7429 2.05714 26.2824 2.05714 25.7143C2.05714 25.1462 2.51765 24.6857 3.08572 24.6857Z" fill="#F80000"/>
<path d="M13.3714 2.05715C13.9395 2.05715 14.4 2.51765 14.4 3.08572C14.4 3.65378 13.9395 4.11429 13.3714 4.11429C12.8034 4.11429 12.3429 3.65378 12.3429 3.08572C12.3429 2.51765 12.8034 2.05715 13.3714 2.05715Z" fill="#F80000"/>
<path d="M3.08571 11.3143C4.78991 11.3143 6.17143 12.6958 6.17143 14.4C6.17143 16.1042 4.78991 17.4857 3.08571 17.4857C1.38152 17.4857 0 16.1042 0 14.4C0 12.6958 1.38152 11.3143 3.08571 11.3143Z" fill="#F80000"/>
<path d="M3.08571 3.8147e-06C4.78991 3.8147e-06 6.17143 1.38153 6.17143 3.08572C6.17143 4.78991 4.78991 6.17143 3.08571 6.17143C1.38152 6.17143 0 4.78991 0 3.08572C0 1.38153 1.38152 3.8147e-06 3.08571 3.8147e-06Z" fill="#F80000"/>
<path d="M13.3714 22.6286C15.0756 22.6286 16.4571 24.0101 16.4571 25.7143C16.4571 27.4185 15.0756 28.8 13.3714 28.8C11.6672 28.8 10.2857 27.4185 10.2857 25.7143C10.2857 24.0101 11.6672 22.6286 13.3714 22.6286Z" fill="#F80000"/>
<path d="M13.3714 11.3143C15.0756 11.3143 16.4571 12.6958 16.4571 14.4C16.4571 16.1042 15.0756 17.4857 13.3714 17.4857C11.6672 17.4857 10.2857 16.1042 10.2857 14.4C10.2857 12.6958 11.6672 11.3143 13.3714 11.3143Z" fill="#F80000"/>
</svg>
